<?xml version="1.0" encoding="utf-8"?>
<!-- Generator: Adobe Illustrator 27.5.0, SVG Export Plug-In . SVG Version: 6.00 Build 0)  -->
<svg version="1.1" id="_x31_" xmlns="http://www.w3.org/2000/svg" xmlns:xlink="http://www.w3.org/1999/xlink" x="0px" y="0px"
	 viewBox="0 0 550.38 451" style="enable-background:new 0 0 550.38 451;" xml:space="preserve">
<g>
	<g>
		<path style="fill:#AA9F91;" d="M235.654,144.736h-3.645v-2.247c0-7.7,3.059-15.084,8.503-20.529l1.068-1.068l2.577,2.577
			c-5.445,5.445-8.503,12.829-8.503,20.529V144.736z"/>
	</g>
	
		<ellipse transform="matrix(0.6794 -0.7338 0.7338 0.6794 -33.5043 218.2756)" style="fill:#AA9F91;" cx="233.021" cy="147.477" rx="9.774" ry="9.774"/>
	<path style="fill:#AA9F91;" d="M235.58,121.627c0,4.249,3.445,7.694,7.694,7.694c4.249,0,7.694-3.445,7.694-7.694
		c0-4.249-3.445-7.694-7.694-7.694C239.025,113.932,235.58,117.377,235.58,121.627z"/>
	<path style="fill:#E0D7CD;" d="M278.141,134.303l-48.166-48.167c-5.695,6.374,2.96,24.723,13.202,34.965
		C253.418,131.342,271.767,139.998,278.141,134.303z"/>
	<path style="fill:#D3C7BA;" d="M250.555,113.722c-9.539-9.539-16.969-19.192-21.095-26.827c-4.522,6.945,3.839,24.33,13.716,34.206
		c9.876,9.877,27.261,18.239,34.206,13.716C269.748,130.691,260.095,123.261,250.555,113.722z"/>
	<polygon style="fill:#D3C7BA;" points="267.402,145.051 202.521,145.051 196.144,162.519 273.779,162.519 	"/>
	<polygon style="fill:#E0D7CD;" points="269.935,145.051 235.756,145.051 232.397,162.519 273.294,162.519 	"/>
	<polygon style="fill:#D3C7BA;" points="370.546,152.676 163.426,152.676 158.158,287.013 365.278,287.013 389.401,187.611 	"/>
	<polygon style="fill:#AA9F91;" points="269.204,177.63 213.612,206.605 201.135,260.672 274.888,268.158 	"/>
	<polygon style="fill:#AA9F91;" points="220.543,230.173 110.467,230.173 140.69,293.667 236.902,293.667 	"/>
	<polygon style="fill:#C1B9AE;" points="255.479,152.676 146.512,152.676 135.283,161.68 105.338,232.113 220.543,232.113 	"/>
	<polygon style="opacity:0.69;fill:#809AC1;" points="121.606,193.85 237.371,193.85 246.639,172.777 130.565,172.777 	"/>
	<g>
		<path style="fill:#473639;" d="M226.536,301.681c2.244-36.77,24.89-67.064,50.255-66.39c25.096,0.667,42.022,31.432,38.177,67.49
			c-3.708,34.766-25.529,62.062-49.068,62.08C242.125,364.879,224.373,337.109,226.536,301.681z"/>
		<polygon style="fill:#473639;" points="276.691,322.503 302.919,364.843 266.759,364.843 		"/>
		<polygon style="fill:#473639;" points="278.283,235.37 329.502,240.992 303.933,266.677 		"/>
		<path style="fill:#473639;" d="M268.779,304.395c5.66-35.247,31.019-64.331,56.198-63.74
			c24.912,0.585,38.889,30.035,31.701,64.602c-6.93,33.329-31.189,59.538-54.615,59.607
			C278.403,364.933,263.325,338.355,268.779,304.395z"/>
	</g>
	<g>
		<path style="fill:#473639;" d="M371.27,301.681c2.245-36.77,24.89-67.064,50.255-66.39c25.096,0.667,42.022,31.432,38.177,67.49
			c-3.708,34.766-25.529,62.062-49.067,62.08C386.86,364.879,369.108,337.109,371.27,301.681z"/>
		<polygon style="fill:#473639;" points="421.426,322.503 447.654,364.843 411.494,364.843 		"/>
		<polygon style="fill:#473639;" points="423.018,235.37 474.237,240.992 448.668,266.677 		"/>
		<path style="fill:#473639;" d="M413.513,304.395c5.66-35.247,31.019-64.331,56.198-63.74
			c24.912,0.585,38.889,30.035,31.701,64.602c-6.93,33.329-31.189,59.538-54.615,59.607
			C423.137,364.933,408.059,338.355,413.513,304.395z"/>
		<path style="fill:#564345;" d="M469.712,240.655c-9.178-0.215-18.376,3.526-26.639,10.058c-0.004,0.386-0.02,0.768-0.02,1.156
			c0,38.015,20.855,68.832,46.581,68.832c2.558,0,5.065-0.317,7.511-0.903c1.774-4.642,3.222-9.508,4.268-14.541
			C508.6,270.689,494.624,241.24,469.712,240.655z"/>
	</g>
	<path style="fill:#332829;" d="M388.996,301.039c1.348-22.09,14.953-40.289,30.191-39.884
		c15.077,0.401,25.245,18.883,22.935,40.544c-2.228,20.885-15.337,37.284-29.478,37.295
		C398.362,339.005,387.697,322.322,388.996,301.039z"/>
	<rect x="300.397" y="298.104" style="fill:#332829;" width="112.294" height="6.932"/>
	<path style="fill:#332829;" d="M357.792,288.676h77.774c0,17.884-9.982,34.936-27.866,34.936h-3.486
		c-19.861,0-37.698-12.359-44.961-31.153L357.792,288.676z"/>
	<path style="fill:#332829;" d="M329.51,288.676h-50.74v34.936h3.544c20.192,0,38.327-12.359,45.71-31.153L329.51,288.676z"/>
	<polygon style="fill:#E0D7CD;" points="480.068,237.52 421.009,177.63 294.159,177.63 282.097,187.473 263.382,229.895 
		263.382,294.083 460.52,294.083 	"/>
	<polygon style="fill:#D8CCC0;" points="263.382,237.52 263.382,294.083 460.52,294.083 480.068,237.52 	"/>
	<polygon style="fill:#C1B9AE;" points="374.428,237.52 315.37,177.63 269.204,177.63 257.143,187.473 238.427,229.895 
		238.427,294.083 354.881,294.083 	"/>
	<polygon style="fill:#CCC3B8;" points="374.428,237.52 238.427,229.895 238.427,294.083 354.881,294.083 	"/>
	<path style="fill:#AA9F91;" d="M259.679,238.618c-12.501,0.313-21.856,7.667-26.966,19.168l5.715,36.297h79.688
		C308.497,262.716,283.285,238.026,259.679,238.618z"/>
	<path style="fill:#564345;" d="M179.702,301.681c-2.255-36.77-25.002-67.064-50.481-66.39c-0.51,0.013-1.011,0.059-1.515,0.097
		l0.015-0.019l-0.391,0.043c-0.368,0.032-0.732,0.075-1.095,0.12l-49.962,5.46l20.192,20.192
		c-5.048,11.575-7.253,26.092-5.592,41.596c2.103,19.628,10.007,36.871,20.745,48.173l-8.643,13.889h36.323l-0.003-0.014
		c0.289,0.008,0.577,0.032,0.867,0.032C164.043,364.879,181.875,337.109,179.702,301.681z"/>
	<path style="fill:#604B4E;" d="M179.476,298.817c-3.226-35.464-25.441-64.183-50.255-63.526c-0.51,0.013-1.011,0.059-1.515,0.097
		l0.015-0.019l-0.391,0.043c-0.368,0.032-0.732,0.075-1.095,0.12l-35.817,3.914c1.417,13.646,8.301,28.68,20.155,41.496
		C132.072,304.184,162.114,311.707,179.476,298.817z"/>
	<path style="fill:#684E50;" d="M137.27,304.395c-5.686-35.247-31.159-64.331-56.451-63.74
		c-25.024,0.585-39.063,30.035-31.844,64.602c6.961,33.329,31.329,59.538,54.86,59.607
		C127.602,364.933,142.748,338.355,137.27,304.395z"/>
	<path style="fill:#564345;" d="M115.3,303.584c-2.881-17.858-15.787-32.594-28.601-32.294
		c-12.679,0.296-19.792,15.217-16.134,32.731c3.527,16.886,15.873,30.165,27.796,30.2C110.402,334.256,118.076,320.79,115.3,303.584
		z"/>
	<path style="fill:#493639;" d="M74.792,315.991c2.052-0.767,4.195-1.461,6.423-2.056c14.31-3.823,27.682-2.654,34.197,2.276
		c0.608-3.835,0.619-8.095-0.112-12.627c-2.881-17.858-15.787-32.594-28.601-32.294c-12.679,0.296-19.792,15.217-16.134,32.731
		C71.457,308.296,72.919,312.335,74.792,315.991z"/>
	<path style="fill:#564345;" d="M298.928,301.681c-2.255-36.77-25.002-67.064-50.481-66.39c-0.51,0.013-1.011,0.059-1.515,0.097
		l0.016-0.019l-0.391,0.043c-0.367,0.032-0.732,0.075-1.095,0.12l-49.962,5.46l20.192,20.192
		c-5.048,11.575-7.253,26.092-5.592,41.596c2.103,19.628,10.007,36.872,20.745,48.173l-8.643,13.889h36.322l-0.003-0.014
		c0.289,0.008,0.577,0.032,0.867,0.032C283.268,364.879,301.101,337.109,298.928,301.681z"/>
	<path style="fill:#604B4E;" d="M248.448,235.291c-0.51,0.013-1.011,0.059-1.515,0.097l0.016-0.019l-0.391,0.043
		c-0.367,0.032-0.732,0.075-1.095,0.12l-49.962,5.46l20.192,20.192c-2.796,6.411-4.68,13.745-5.558,21.629
		c0.83,0.918,1.682,1.828,2.579,2.723c23.016,22.953,59.431,29.271,81.335,14.11c1.579-1.093,3.025-2.276,4.367-3.523
		C294.337,261.912,272.629,234.651,248.448,235.291z"/>
	<path style="fill:#684E50;" d="M256.496,304.395c-5.686-35.247-31.159-64.331-56.451-63.74
		c-25.024,0.585-39.064,30.035-31.844,64.602c6.961,33.329,31.329,59.538,54.86,59.607
		C246.828,364.933,261.974,338.355,256.496,304.395z"/>
	<path style="fill:#564345;" d="M234.526,303.584c-2.881-17.858-15.787-32.594-28.601-32.294
		c-12.679,0.296-19.792,15.217-16.134,32.731c3.527,16.886,15.873,30.165,27.796,30.2
		C229.628,334.256,237.302,320.79,234.526,303.584z"/>
	<path style="fill:#493639;" d="M192.931,313.69c2.831-1.247,5.853-2.247,9.005-2.941c14.682-3.228,27.578,1.187,31.589,10.193
		c1.603-4.904,2.048-10.863,1-17.358c-2.881-17.858-15.787-32.594-28.601-32.294c-12.679,0.296-19.792,15.217-16.134,32.731
		C190.5,307.42,191.582,310.662,192.931,313.69z"/>
	<path style="fill:#C1B9AE;" d="M233.668,303.286c-1.851-11.474-10.143-20.942-18.376-20.749
		c-8.146,0.191-12.716,9.777-10.366,21.03c2.266,10.849,10.198,19.381,17.858,19.404
		C230.521,322.993,235.451,314.341,233.668,303.286z"/>
	<path style="fill:#DDD1C3;" d="M206.487,308.689c3.316,8.291,9.895,14.262,16.296,14.281c5.043,0.015,8.878-3.669,10.454-9.288
		c-3.326-8.323-9.958-14.386-16.56-14.232C211.663,299.567,208.012,303.253,206.487,308.689z"/>
	<path style="fill:#C1B9AE;" d="M114.442,303.286c-1.851-11.474-10.143-20.942-18.376-20.749
		c-8.146,0.191-12.717,9.777-10.367,21.03c2.266,10.849,10.198,19.381,17.858,19.404
		C111.295,322.993,116.225,314.341,114.442,303.286z"/>
	<path style="fill:#DDD1C3;" d="M86.188,305.568c2.766,9.879,10.187,17.382,17.37,17.402c7.144,0.021,11.883-7.361,11.164-17.196
		c-3.836-3.555-8.858-5.73-14.375-5.73C94.935,300.044,89.996,302.133,86.188,305.568z"/>
	<polygon style="fill:#AA9F91;" points="365.395,157.805 274.217,157.805 269.066,173.332 370.546,173.332 	"/>
	<polygon style="fill:#564345;" points="360.911,161.424 272.873,161.424 269.066,173.332 364.563,173.332 	"/>
	<polygon style="fill:#3F3133;" points="360.97,161.617 360.911,161.424 272.873,161.424 269.066,173.332 351.63,173.332 	"/>
	<polygon style="fill:#C1B9AE;" points="446.116,203.139 306.635,203.139 311.904,211.734 454.592,211.734 	"/>
	<polygon style="fill:#D8CCC0;" points="347.325,206.466 455.629,206.466 455.113,202.654 343.513,202.654 	"/>
	<polygon style="fill:#C1B9AE;" points="328.019,206.466 357.653,206.466 357.512,202.654 326.976,202.654 	"/>
	<polygon style="fill:#564345;" points="449.582,206.605 310.101,206.605 315.37,215.2 458.058,215.2 	"/>
	<polygon style="fill:#3F3133;" points="343.862,206.605 310.101,206.605 315.37,215.2 352.818,215.2 	"/>
	<g>
		<path style="fill:#665A58;" d="M215.676,226.44h-24.85c-1.394,0-2.329-1.432-1.767-2.708l20.241-46
			c0.525-1.194,1.706-1.964,3.01-1.964h24.85c1.394,0,2.329,1.432,1.767,2.708l-20.241,46
			C218.16,225.67,216.98,226.44,215.676,226.44z M192.043,225.124h22.774c1.304,0,2.485-0.771,3.01-1.964l19.485-44.284
			c0.371-0.844-0.247-1.792-1.17-1.792h-22.974c-1.304,0-2.485,0.771-3.01,1.964l-19.404,44.101
			C190.344,224.08,191.026,225.124,192.043,225.124z"/>
	</g>
	<g>
		<path style="fill:#665A58;" d="M152.025,226.44h-33.836c-1.249,0-2.086-1.283-1.583-2.426l10.827-24.617
			c0.474-1.077,1.539-1.772,2.715-1.772h33.737c1.295,0,2.163,1.33,1.641,2.515l-10.786,24.528
			C154.267,225.745,153.201,226.44,152.025,226.44z M119.032,225.339h32.274c1.176,0,2.242-0.695,2.715-1.772l10.186-23.161
			c0.348-0.791-0.231-1.679-1.096-1.679h-32.245c-1.176,0-2.242,0.695-2.715,1.772l-10.197,23.187
			C117.612,224.465,118.182,225.339,119.032,225.339z"/>
	</g>
	<polygon style="fill:#D8CCC0;" points="135.62,161.41 253.377,157.457 255.479,152.676 146.512,152.676 	"/>
	<polygon style="fill:#AA9F91;" points="464.125,249.581 392.866,249.581 361.951,290.617 457.054,290.617 	"/>
	<polygon style="fill:#938373;" points="462.119,261.226 464.125,249.581 392.866,249.581 361.951,290.617 434.734,290.617 	"/>
	<polygon style="fill:#3F3133;" points="435.15,258.132 386.979,258.132 362.506,290.617 435.15,290.617 	"/>
	<polygon style="fill:#564345;" points="413.315,290.617 435.15,290.617 435.15,266.696 	"/>
	<polygon style="fill:#CCC3B8;" points="324.803,187.196 315.37,177.63 269.204,177.63 257.483,187.196 	"/>
	<path style="fill:#564345;" d="M198.381,242.734c25.292-0.591,50.765,28.493,56.451,63.74c3.143,19.482-0.511,36.522-8.676,47.507
		c9.322-10.842,15.168-29.158,11.819-49.917c-5.686-35.247-32.638-64.001-57.93-63.41c-9.948,0.232-18.151,5.038-23.982,12.902
		C181.751,246.935,189.345,242.945,198.381,242.734z"/>
	<path style="fill:#D3C7BA;" d="M191.722,225.106h22.157c1.316,0,2.508-0.777,3.037-1.982l19.662-44.688
		c0.375-0.852-0.249-1.808-1.18-1.808h-22.359c-1.316,0-2.507,0.777-3.037,1.982l-19.581,44.503
		C190.008,224.052,190.696,225.106,191.722,225.106z"/>
	<path style="fill:#665A58;" d="M211.144,186.281h16.555c0.136,0,0.259-0.08,0.313-0.204l2.028-4.612
		c0.039-0.088-0.026-0.187-0.122-0.187h-16.575c-0.136,0-0.259,0.08-0.314,0.205l-2.02,4.592
		C210.967,186.173,211.038,186.281,211.144,186.281z"/>
	<path style="fill:#D3C7BA;" d="M118.563,225.339h32.694c1.192,0,2.271-0.704,2.751-1.795l10.318-23.463
		c0.352-0.801-0.234-1.701-1.11-1.701h-32.665c-1.192,0-2.271,0.704-2.751,1.795l-10.33,23.489
		C117.123,224.454,117.701,225.339,118.563,225.339z"/>
	<path style="fill:#564345;" d="M78.74,243.566c25.292-0.591,50.765,28.493,56.451,63.74c2.953,18.303-0.093,34.452-7.243,45.451
		c8.62-10.945,13.473-28.839,10.247-48.831c-5.686-35.247-32.084-63.863-57.375-63.272c-10.793,0.252-19.535,5.882-25.417,14.968
		C61.187,248.261,69.153,243.79,78.74,243.566z"/>
	<rect x="376.404" y="239.288" style="fill:#564345;" width="22.147" height="1.872"/>
	<rect x="454.802" y="239.288" style="fill:#564345;" width="22.147" height="1.872"/>
	<polygon style="fill:#3F3133;" points="313.5,206.605 316.84,211.125 454.059,211.125 449.582,206.605 	"/>
	<g>
		<path style="fill:#665A58;" d="M276.655,226.44h-24.85c-1.394,0-2.329-1.432-1.767-2.708l4.714-10.385
			c0.525-1.194,1.706-1.964,3.01-1.964h24.85c1.394,0,2.329,1.432,1.767,2.708l-4.714,10.385
			C279.14,225.67,277.959,226.44,276.655,226.44z M253.023,225.124h22.774c1.304,0,2.485-0.771,3.01-1.964l3.957-8.669
			c0.371-0.844-0.247-1.792-1.169-1.792H258.62c-1.304,0-2.485,0.771-3.01,1.964l-3.877,8.486
			C251.324,224.08,252.006,225.124,253.023,225.124z"/>
	</g>
	<g>
		<path style="fill:#684E50;" d="M225.832,319.203c-0.254-0.647-0.787-1.054-1.19-0.909c-0.403,0.144-0.524,0.786-0.27,1.432
			c0.254,0.647,0.787,1.054,1.19,0.909C225.965,320.49,226.086,319.849,225.832,319.203z"/>
		<path style="fill:#684E50;" d="M212.879,286.229c-0.254-0.646-0.787-1.053-1.19-0.909c-0.403,0.144-0.524,0.786-0.27,1.432
			c0.254,0.646,0.787,1.053,1.19,0.909C213.012,287.517,213.133,286.875,212.879,286.229z"/>
		<path style="fill:#684E50;" d="M208.806,307.83c0.403-0.145,0.524-0.786,0.27-1.432c-0.254-0.646-0.786-1.054-1.19-0.909
			c-0.403,0.144-0.524,0.786-0.27,1.432C207.87,307.567,208.403,307.974,208.806,307.83z"/>
		<path style="fill:#684E50;" d="M229.365,300.466c0.403-0.144,0.524-0.786,0.27-1.432c-0.254-0.647-0.787-1.054-1.19-0.909
			c-0.403,0.144-0.524,0.786-0.27,1.432C228.429,300.203,228.962,300.61,229.365,300.466z"/>
		<path style="fill:#684E50;" d="M206.587,294.936c0.465,0.355,0.927,0.19,1.032-0.37c0.105-0.559-0.186-1.301-0.65-1.656
			c-0.465-0.355-0.927-0.19-1.032,0.37C205.831,293.84,206.122,294.582,206.587,294.936z"/>
		<path style="fill:#684E50;" d="M230.284,313.045c0.465,0.355,0.927,0.189,1.032-0.37c0.105-0.559-0.186-1.301-0.65-1.655
			c-0.465-0.355-0.927-0.19-1.032,0.37C229.528,311.949,229.819,312.69,230.284,313.045z"/>
		<path style="fill:#684E50;" d="M220.473,288.072c-0.105,0.559,0.186,1.301,0.65,1.656c0.465,0.355,0.927,0.19,1.032-0.37
			c0.105-0.559-0.186-1.3-0.65-1.655C221.041,287.347,220.579,287.513,220.473,288.072z"/>
		<path style="fill:#684E50;" d="M215.095,316.595c-0.106,0.559,0.186,1.301,0.65,1.655c0.465,0.355,0.927,0.19,1.032-0.37
			c0.105-0.559-0.186-1.301-0.65-1.656C215.663,315.871,215.2,316.036,215.095,316.595z"/>
	</g>
	<g>
		<path style="fill:#684E50;" d="M107.048,319.203c-0.254-0.647-0.787-1.054-1.19-0.909c-0.403,0.144-0.524,0.786-0.27,1.432
			c0.254,0.647,0.787,1.054,1.19,0.909C107.181,320.49,107.302,319.849,107.048,319.203z"/>
		<path style="fill:#684E50;" d="M94.095,286.229c-0.254-0.646-0.787-1.053-1.19-0.909c-0.403,0.144-0.524,0.786-0.27,1.432
			c0.254,0.646,0.787,1.053,1.19,0.909C94.228,287.517,94.348,286.875,94.095,286.229z"/>
		<path style="fill:#684E50;" d="M90.021,307.83c0.403-0.145,0.524-0.786,0.27-1.432c-0.254-0.646-0.787-1.054-1.19-0.909
			c-0.403,0.144-0.524,0.786-0.27,1.432C89.086,307.567,89.618,307.974,90.021,307.83z"/>
		<path style="fill:#684E50;" d="M110.581,300.466c0.403-0.144,0.524-0.786,0.27-1.432c-0.254-0.647-0.787-1.054-1.19-0.909
			c-0.403,0.144-0.524,0.786-0.27,1.432C109.645,300.203,110.178,300.61,110.581,300.466z"/>
		<path style="fill:#684E50;" d="M87.802,294.936c0.465,0.355,0.927,0.19,1.032-0.37c0.105-0.559-0.186-1.301-0.65-1.656
			c-0.465-0.355-0.927-0.19-1.032,0.37C87.046,293.84,87.337,294.582,87.802,294.936z"/>
		<path style="fill:#684E50;" d="M111.499,313.045c0.465,0.355,0.927,0.189,1.032-0.37c0.106-0.559-0.186-1.301-0.65-1.655
			c-0.465-0.355-0.927-0.19-1.032,0.37C110.743,311.949,111.034,312.69,111.499,313.045z"/>
		<path style="fill:#684E50;" d="M101.689,288.072c-0.106,0.559,0.186,1.301,0.65,1.656c0.465,0.355,0.927,0.19,1.032-0.37
			c0.106-0.559-0.186-1.3-0.65-1.655C102.257,287.347,101.794,287.513,101.689,288.072z"/>
		<path style="fill:#684E50;" d="M96.31,316.595c-0.105,0.559,0.186,1.301,0.65,1.655c0.465,0.355,0.927,0.19,1.032-0.37
			c0.105-0.559-0.186-1.301-0.65-1.656C96.878,315.871,96.416,316.036,96.31,316.595z"/>
	</g>
	<g>
		<path style="fill:#564345;" d="M228.201,340.089c-0.548-1.494-1.823-2.455-2.85-2.148c-1.026,0.307-1.415,1.767-0.867,3.26
			c0.548,1.494,1.823,2.455,2.85,2.148C228.361,343.043,228.749,341.583,228.201,340.089z"/>
		<path style="fill:#564345;" d="M200.276,263.921c-0.548-1.493-1.823-2.455-2.85-2.148c-1.026,0.307-1.414,1.767-0.867,3.26
			c0.548,1.493,1.824,2.455,2.85,2.148C200.435,266.874,200.823,265.415,200.276,263.921z"/>
		<path style="fill:#564345;" d="M187.2,313.096c1.026-0.307,1.415-1.767,0.867-3.26c-0.548-1.493-1.823-2.455-2.85-2.148
			c-1.026,0.307-1.414,1.767-0.867,3.26C184.897,312.442,186.173,313.404,187.2,313.096z"/>
		<path style="fill:#564345;" d="M239.544,297.435c1.026-0.307,1.414-1.767,0.867-3.26c-0.548-1.493-1.824-2.455-2.85-2.148
			c-1.026,0.307-1.415,1.767-0.867,3.26C237.241,296.78,238.517,297.742,239.544,297.435z"/>
		<path style="fill:#564345;" d="M183.389,283.477c1.113,0.839,2.29,0.487,2.628-0.786c0.339-1.273-0.289-2.985-1.402-3.824
			c-1.113-0.839-2.29-0.487-2.628,0.786C181.648,280.926,182.275,282.638,183.389,283.477z"/>
		<path style="fill:#564345;" d="M240.148,326.261c1.113,0.839,2.29,0.487,2.628-0.786c0.339-1.273-0.289-2.985-1.402-3.824
			c-1.113-0.839-2.289-0.487-2.628,0.786C238.407,323.71,239.035,325.422,240.148,326.261z"/>
		<path style="fill:#564345;" d="M218.998,268.574c-0.339,1.273,0.289,2.986,1.402,3.824s2.29,0.487,2.628-0.786
			c0.339-1.273-0.289-2.985-1.402-3.824C220.513,266.948,219.337,267.301,218.998,268.574z"/>
		<path style="fill:#564345;" d="M201.732,333.508c-0.339,1.273,0.289,2.985,1.402,3.824c1.113,0.839,2.29,0.487,2.628-0.786
			c0.339-1.273-0.289-2.986-1.402-3.824C203.247,331.883,202.07,332.235,201.732,333.508z"/>
	</g>
	<g>
		<path style="fill:#564345;" d="M108.421,340.089c-0.548-1.494-1.823-2.455-2.85-2.148c-1.026,0.307-1.414,1.767-0.867,3.26
			c0.548,1.494,1.823,2.455,2.85,2.148C108.58,343.043,108.968,341.583,108.421,340.089z"/>
		<path style="fill:#564345;" d="M80.495,263.921c-0.548-1.493-1.824-2.455-2.85-2.148c-1.026,0.307-1.415,1.767-0.867,3.26
			c0.548,1.493,1.823,2.455,2.85,2.148C80.655,266.874,81.043,265.415,80.495,263.921z"/>
		<path style="fill:#564345;" d="M67.419,313.096c1.026-0.307,1.414-1.767,0.867-3.26c-0.548-1.493-1.824-2.455-2.85-2.148
			c-1.026,0.307-1.414,1.767-0.867,3.26C65.117,312.442,66.393,313.404,67.419,313.096z"/>
		<path style="fill:#564345;" d="M119.763,297.435c1.026-0.307,1.414-1.767,0.867-3.26c-0.548-1.493-1.824-2.455-2.85-2.148
			c-1.026,0.307-1.414,1.767-0.867,3.26C117.461,296.78,118.737,297.742,119.763,297.435z"/>
		<path style="fill:#564345;" d="M63.608,283.477c1.113,0.839,2.29,0.487,2.628-0.786c0.339-1.273-0.289-2.985-1.402-3.824
			c-1.113-0.839-2.29-0.487-2.628,0.786C61.867,280.926,62.495,282.638,63.608,283.477z"/>
		<path style="fill:#564345;" d="M120.367,326.261c1.113,0.839,2.29,0.487,2.628-0.786c0.339-1.273-0.289-2.985-1.402-3.824
			c-1.113-0.839-2.29-0.487-2.628,0.786C118.627,323.71,119.254,325.422,120.367,326.261z"/>
		<path style="fill:#564345;" d="M99.218,268.574c-0.339,1.273,0.289,2.986,1.402,3.824c1.113,0.839,2.29,0.487,2.628-0.786
			c0.339-1.273-0.289-2.985-1.402-3.824C100.733,266.948,99.556,267.301,99.218,268.574z"/>
		<path style="fill:#564345;" d="M81.951,333.508c-0.339,1.273,0.289,2.985,1.402,3.824c1.113,0.839,2.29,0.487,2.628-0.786
			c0.339-1.273-0.289-2.986-1.402-3.824C83.467,331.883,82.29,332.235,81.951,333.508z"/>
	</g>
	<path style="fill:#665A58;" d="M128.587,206.245h16.555c0.136,0,0.259-0.08,0.313-0.205l2.028-4.612
		c0.038-0.088-0.026-0.187-0.122-0.187h-16.575c-0.136,0-0.259,0.08-0.314,0.204l-2.02,4.593
		C128.41,206.136,128.481,206.245,128.587,206.245z"/>
</g>
</svg>
